<?xml version="1.0" encoding="utf-8"?>
<!-- Generator: Adobe Illustrator 23.0.1, SVG Export Plug-In . SVG Version: 6.00 Build 0)  -->
<svg version="1.1" id="RU_logo" xmlns="http://www.w3.org/2000/svg" xmlns:xlink="http://www.w3.org/1999/xlink" x="0px" y="0px"
	 viewBox="0 0 256 256" style="enable-background:new 0 0 256 256;" xml:space="preserve">
<style type="text/css">
	.st0{fill:#FFFFFF;}
	.st1{fill:#174CA1;}
	.st2{fill:#FFD204;}
	.st3{fill:#D52027;}
</style>
<g>
	<path class="st0" d="M136.1,84.7c-3.4,0-6.2,0.9-8.1,3.4c-1.9-2.5-4.8-3.4-8.1-3.4c-7.4,0-17.1,4.2-24.4,4.2c-2,0-3.8-0.3-5.4-1.1
		v89.6c0.5,0.2,1.1,0.3,1.8,0.3c4.8,0,14.2-3.8,23.2-3.8c4.6,0,9.2,1,12.9,4.1c3.7-3.1,8.3-4.1,12.9-4.1c9,0,18.4,3.8,23.2,3.8
		c0.7,0,1.3-0.1,1.8-0.3V87.7c-1.5,0.8-3.3,1.1-5.4,1.1C153.2,88.9,143.5,84.7,136.1,84.7z M162,91.9v76.4c-5.9,5.2-27.7-5.5-34,4.3
		c-6.3-9.8-28.1,0.8-34-4.3V91.9c6.8,8.5,27-6,34,1.7C135,85.9,155.2,100.4,162,91.9z"/>
	<path class="st0" d="M137.4,75.2c-3.9,0-7.2,1-9.4,4.2c-2.2-3.1-5.5-4.2-9.4-4.2c-7.5,0-17.3,3.8-26.3,3.8c-3.8,0-7.5-0.7-10.8-2.7
		v107.8c2,2.4,5,3.2,8.5,3.2c7.6,0,17.6-3.7,26.2-3.7c4.5,0,8.6,1,11.7,4.1c3.1-3.1,7.2-4.1,11.7-4.1c8.6,0,18.7,3.7,26.2,3.7
		c3.5,0,6.5-0.8,8.5-3.2V76.3c-3.2,2-6.9,2.7-10.8,2.7C154.8,79,144.9,75.2,137.4,75.2z M171,180.8l-3.2,1.3
		c-1.1,0.4-2.3,0.6-3.7,0.6c-2.6,0-5.7-0.7-9.3-1.6c-4.3-1-9.3-2.2-13.9-2.2c-4.1,0-7.2,1-9.6,2.9l-3.3,2.7l-3.3-2.7
		c-2.4-2-5.5-2.9-9.6-2.9c-4.6,0-9.5,1.2-13.9,2.2c-3.6,0.9-6.7,1.6-9.3,1.6c-1.4,0-2.6-0.2-3.7-0.6l-3.2-1.3V79.2l7.6,4
		c0.7,0.4,1.6,0.5,2.9,0.5c3,0,7-1,10.9-1.9c4.5-1.1,9.2-2.2,13.5-2.2c3.1,0,5.9,0.6,8.1,1.9c2.3-1.2,5-1.9,8.1-1.9
		c4.3,0,9,1.1,13.5,2.2c3.9,0.9,7.9,1.9,10.9,1.9c1.3,0,2.3-0.2,2.9-0.5l7.6-4V180.8z"/>
	<path class="st0" d="M153.4,120c-0.5-1.1-5.9,0-13.6,2.6c5.3-6.1,8.5-10.7,7.6-11.5c-0.8-0.8-5.4,2.3-11.5,7.6
		c2.6-7.7,3.7-13.1,2.6-13.6c-1.1-0.5-4.1,4.2-7.7,11.5c-0.6-8.1-1.6-13.6-2.8-13.6c-1.2,0-2.2,5.4-2.8,13.6
		c-3.6-7.3-6.7-11.9-7.7-11.5c-1.1,0.5,0,5.9,2.6,13.6c-6.1-5.3-10.7-8.5-11.5-7.6c-0.8,0.8,2.3,5.4,7.6,11.5
		c-7.7-2.6-13.1-3.7-13.6-2.6c-0.5,1.1,4.2,4.1,11.5,7.7c-8.1,0.6-13.6,1.6-13.6,2.8c0,1.2,5.4,2.2,13.6,2.8
		c-7.3,3.6-11.9,6.7-11.5,7.7c0.5,1.1,5.9,0,13.6-2.6c-5.3,6.1-8.5,10.7-7.6,11.5c0.8,0.8,5.4-2.3,11.5-7.6
		c-2.6,7.7-3.7,13.1-2.6,13.6c1.1,0.5,4.1-4.2,7.7-11.5c0.6,8.1,1.6,13.6,2.8,13.6c1.2,0,2.2-5.4,2.8-13.6
		c3.6,7.3,6.7,11.9,7.7,11.5c1.1-0.5,0-5.9-2.6-13.6c6.1,5.3,10.7,8.5,11.5,7.6c0.8-0.8-2.3-5.4-7.6-11.5c7.7,2.6,13.1,3.7,13.6,2.6
		c0.5-1.1-4.2-4.1-11.5-7.7c8.1-0.6,13.6-1.6,13.6-2.8c0-1.2-5.4-2.2-13.6-2.8C149.2,124.1,153.9,121.1,153.4,120z"/>
	<path class="st0" d="M128,39.4C80.1,39.4,41.3,79,41.3,128s38.8,88.6,86.7,88.6s86.7-39.7,86.7-88.6S175.9,39.4,128,39.4z
		 M179.6,185.9l-1.2,1.4c-2.8,3.3-7,5-12.5,5c-4.2,0-8.6-0.9-13.3-1.9c-4.4-0.9-9-1.8-12.9-1.8c-3.7,0-6.3,0.8-8.1,2.6l-3.6,3.6
		l-3.6-3.6c-1.8-1.8-4.3-2.6-8.1-2.6c-3.9,0-8.5,0.9-12.9,1.8c-4.7,1-9.1,1.9-13.3,1.9c-5.4,0-9.6-1.7-12.5-5l-1.2-1.4V67l4.6,1
		c0,0,1,2.2,3.1,3.8l0.2,0.1c2.1,1.3,4.7,2,8,2c4.1,0,8.7-1,13.1-1.9c4.6-1,9-1.9,13.1-1.9c3.7,0,6.8,0.8,9.4,2.4
		c2.6-1.6,5.7-2.4,9.4-2.4c4.1,0,8.5,0.9,13.1,1.9c4.4,0.9,9,1.9,13.1,1.9c3.3,0,5.9-0.6,8-2l0.2-0.1c2.1-1.6,3.1-3.8,3.1-3.8l4.6-1
		V185.9z"/>
	<path class="st1" d="M212.2,91.6c-4.6-11.1-11.2-21.1-19.6-29.7c-8.4-8.6-18.2-15.3-29-20c-11.3-4.9-23.2-7.3-35.6-7.3
		s-24.3,2.5-35.6,7.3c-10.9,4.7-20.7,11.4-29,20c-8.4,8.6-15,18.6-19.6,29.7c-4.8,11.5-7.2,23.8-7.2,36.4s2.4,24.9,7.2,36.4
		c4.6,11.1,11.2,21.1,19.6,29.7c8.4,8.6,18.2,15.3,29,20c11.3,4.9,23.2,7.3,35.6,7.3s24.3-2.5,35.6-7.3c10.9-4.7,20.7-11.4,29-20
		c8.4-8.6,15-18.6,19.6-29.7c4.8-11.5,7.2-23.8,7.2-36.4S217,103.1,212.2,91.6z M128,216.6c-47.9,0-86.7-39.7-86.7-88.6
		S80.1,39.4,128,39.4S214.7,79,214.7,128S175.9,216.6,128,216.6z"/>
	<path class="st1" d="M128,93.6c-7-7.8-27.2,6.8-34-1.7v76.4c5.9,5.2,27.7-5.5,34,4.3c6.3-9.8,28.1,0.8,34-4.3V91.9
		C155.2,100.4,135,85.9,128,93.6z M155.5,130.5c0,1.2-5.4,2.2-13.6,2.8c7.3,3.6,11.9,6.7,11.5,7.7c-0.5,1.1-5.9,0-13.6-2.6
		c5.3,6.1,8.5,10.7,7.6,11.5c-0.8,0.8-5.4-2.3-11.5-7.6c2.6,7.7,3.7,13.1,2.6,13.6c-1.1,0.5-4.1-4.2-7.7-11.5
		c-0.6,8.1-1.6,13.6-2.8,13.6c-1.2,0-2.2-5.4-2.8-13.6c-3.6,7.3-6.7,11.9-7.7,11.5c-1.1-0.5,0-5.9,2.6-13.6
		c-6.1,5.3-10.7,8.5-11.5,7.6c-0.8-0.8,2.3-5.4,7.6-11.5c-7.7,2.6-13.1,3.7-13.6,2.6c-0.5-1.1,4.2-4.1,11.5-7.7
		c-8.1-0.6-13.6-1.6-13.6-2.8c0-1.2,5.4-2.2,13.6-2.8c-7.3-3.6-11.9-6.7-11.5-7.7c0.5-1.1,5.9,0,13.6,2.6
		c-5.3-6.1-8.5-10.7-7.6-11.5c0.8-0.8,5.4,2.3,11.5,7.6c-2.6-7.7-3.7-13.1-2.6-13.6c1.1-0.5,4.1,4.2,7.7,11.5
		c0.6-8.1,1.6-13.6,2.8-13.6c1.2,0,2.2,5.4,2.8,13.6c3.6-7.3,6.7-11.9,7.7-11.5c1.1,0.5,0,5.9-2.6,13.6c6.1-5.3,10.7-8.5,11.5-7.6
		c0.8,0.8-2.3,5.4-7.6,11.5c7.7-2.6,13.1-3.7,13.6-2.6c0.5,1.1-4.2,4.1-11.5,7.7C150.1,128.3,155.5,129.4,155.5,130.5z"/>
	<path class="st2" d="M160.5,83.7c-3,0-7-1-10.9-1.9c-4.5-1.1-9.2-2.2-13.5-2.2c-3.1,0-5.9,0.6-8.1,1.9c-2.3-1.2-5-1.9-8.1-1.9
		c-4.3,0-9,1.1-13.5,2.2c-3.9,0.9-7.9,1.9-10.9,1.9c-1.3,0-2.3-0.2-2.9-0.5l-7.6-4v101.6l3.2,1.3c1.1,0.4,2.3,0.6,3.7,0.6
		c2.6,0,5.7-0.7,9.3-1.6c4.3-1,9.3-2.2,13.9-2.2c4.1,0,7.2,1,9.6,2.9l3.3,2.7l3.3-2.7c2.4-2,5.5-2.9,9.6-2.9c4.6,0,9.5,1.2,13.9,2.2
		c3.6,0.9,6.7,1.6,9.3,1.6c1.4,0,2.6-0.2,3.7-0.6l3.2-1.3V79.2l-7.6,4C162.8,83.5,161.8,83.7,160.5,83.7z M165.9,177.3
		c-0.5,0.2-1.1,0.3-1.8,0.3c-4.8,0-14.2-3.8-23.2-3.8c-4.6,0-9.2,1-12.9,4.1c-3.7-3.1-8.3-4.1-12.9-4.1c-9,0-18.4,3.8-23.2,3.8
		c-0.7,0-1.3-0.1-1.8-0.3V87.7c1.5,0.8,3.3,1.1,5.4,1.1c7.3,0,17-4.2,24.4-4.2c3.4,0,6.2,0.9,8.1,3.4c1.9-2.5,4.8-3.4,8.1-3.4
		c7.4,0,17.1,4.2,24.4,4.2c2,0,3.8-0.3,5.4-1.1V177.3z"/>
	<path class="st3" d="M171.9,71.8l-0.2,0.1c-2.1,1.3-4.7,2-8,2c-4.1,0-8.7-1-13.1-1.9c-4.6-1-9-1.9-13.1-1.9c-3.7,0-6.8,0.8-9.4,2.4
		c-2.6-1.6-5.7-2.4-9.4-2.4c-4.1,0-8.5,0.9-13.1,1.9c-4.4,0.9-9,1.9-13.1,1.9c-3.3,0-5.9-0.6-8-2l-0.2-0.1C82,70.2,81.1,68,81.1,68
		l-4.6-1v118.9l1.2,1.4c2.8,3.3,7,5,12.5,5c4.2,0,8.6-0.9,13.3-1.9c4.4-0.9,9-1.8,12.9-1.8c3.7,0,6.3,0.8,8.1,2.6l3.6,3.6l3.6-3.6
		c1.8-1.8,4.3-2.6,8.1-2.6c3.9,0,8.5,0.9,12.9,1.8c4.7,1,9.1,1.9,13.3,1.9c5.4,0,9.6-1.7,12.5-5l1.2-1.4V67l-4.6,1
		C174.9,68,174,70.2,171.9,71.8z M174.4,184.1c-2,2.4-5,3.2-8.5,3.2c-7.5,0-17.6-3.7-26.2-3.7c-4.5,0-8.6,1-11.7,4.1
		c-3.1-3.1-7.2-4.1-11.7-4.1c-8.6,0-18.7,3.7-26.2,3.7c-3.5,0-6.5-0.8-8.5-3.2V76.3c3.2,2,6.9,2.7,10.8,2.7c8.9,0,18.7-3.8,26.3-3.8
		c3.9,0,7.2,1,9.4,4.2c2.2-3.1,5.5-4.2,9.4-4.2c7.5,0,17.3,3.8,26.3,3.8c3.8,0,7.5-0.7,10.8-2.7V184.1z"/>
</g>
</svg>
